/* XPM */
static char *_2b4ce74997a4b65da308b7d8da969d1GwuX4aukwQl2dMRU[] = {
/* columns rows colors chars-per-pixel */
"64 64 193 2 ",
"   c None",
".  c #161117",
"X  c #1C1516",
"o  c #17131C",
"O  c #1A151B",
"+  c #1E191D",
"@  c #231B1B",
"#  c #2B1D1D",
"$  c #211718",
"%  c #301F1E",
"&  c #2D201E",
"*  c #32211F",
"=  c #1A1723",
"-  c #1D1825",
";  c #1E1A29",
":  c #241A22",
">  c #211C2D",
",  c #321F21",
"<  c #241E31",
"1  c #272020",
"2  c #2D2423",
"3  c #2C222E",
"4  c #2F2826",
"5  c #352323",
"6  c #3B2625",
"7  c #342A26",
"8  c #3D2924",
"9  c #362D29",
"0  c #3C2D2A",
"q  c #3B322C",
"w  c #262034",
"e  c #2B2234",
"r  c #2C253C",
"t  c #2E283F",
"y  c #2E2835",
"u  c #332633",
"i  c #372835",
"p  c #392936",
"a  c #30273F",
"s  c #322B3D",
"d  c #3E2B3A",
"f  c #382734",
"g  c #3D343B",
"h  c #422A27",
"j  c #452D2A",
"k  c #4C2E2B",
"l  c #4C2C27",
"z  c #45322E",
"x  c #4D312D",
"c  c #54332E",
"v  c #59352E",
"b  c #453531",
"n  c #4D3B35",
"m  c #44393E",
"M  c #473836",
"N  c #563530",
"B  c #5B3631",
"V  c #523B35",
"C  c #5E3A34",
"Z  c #5D3F39",
"A  c #523E38",
"S  c #603731",
"D  c #633B35",
"F  c #693D34",
"G  c #643F39",
"H  c #6A3F39",
"J  c #4E433B",
"K  c #54453C",
"L  c #5A433B",
"P  c #54483F",
"I  c #5B4B3F",
"U  c #65433B",
"Y  c #6B433C",
"T  c #63493F",
"R  c #6B4B3E",
"E  c #674237",
"W  c #73423B",
"Q  c #79463D",
"!  c #7E493D",
"~  c #2F2740",
"^  c #2F2941",
"/  c #332B44",
"(  c #362D49",
")  c #392F4C",
"_  c #382D46",
"`  c #3C304E",
"'  c #3B3141",
"]  c #3E3151",
"[  c #3E3251",
"{  c #3F3251",
"}  c #3F3252",
"|  c #3F3352",
" . c #3F3253",
".. c #3D3150",
"X. c #3E3252",
"o. c #403253",
"O. c #403353",
"+. c #403352",
"@. c #413354",
"#. c #403353",
"$. c #574E44",
"%. c #5D4D43",
"&. c #5D5244",
"*. c #5D5448",
"=. c #634B42",
"-. c #6B4C42",
";. c #714D42",
":. c #645345",
">. c #6B5345",
",. c #65554A",
"<. c #6B5649",
"1. c #65594C",
"2. c #6C5B4B",
"3. c #735146",
"4. c #755549",
"5. c #7A5649",
"6. c #715F4E",
"7. c #7D5B4D",
"8. c #785146",
"9. c #795F50",
"0. c #72614F",
"q. c #6B6053",
"w. c #746351",
"e. c #7B6553",
"r. c #7C6A55",
"t. c #726759",
"y. c #796758",
"u. c #7B6C5D",
"i. c #72685A",
"p. c #7F7363",
"a. c #814C3E",
"s. c #845E4F",
"d. c #815D50",
"f. c #846453",
"g. c #836A56",
"h. c #8E6A57",
"j. c #826E59",
"k. c #8D6D59",
"l. c #8B6655",
"z. c #916A57",
"x. c #926B58",
"c. c #877056",
"v. c #897157",
"b. c #85715A",
"n. c #8A735B",
"m. c #8C785F",
"M. c #90715B",
"N. c #8B7662",
"B. c #8E7A61",
"V. c #867A68",
"C. c #937E64",
"Z. c #957C68",
"A. c #8D806B",
"S. c #968166",
"D. c #998367",
"F. c #978368",
"G. c #9C8669",
"H. c #9E886A",
"J. c #948771",
"K. c #9C8C74",
"L. c #9F9178",
"P. c #A4836B",
"I. c #A48D6E",
"U. c #A98C6D",
"Y. c #A7906F",
"T. c #A8916F",
"R. c #A78F70",
"E. c #A98C74",
"W. c #A69072",
"Q. c #AC9472",
"!. c #AF9875",
"~. c #AE9278",
"^. c #B09775",
"/. c #B39A76",
"(. c #B59D79",
"). c #BA9F7C",
"_. c #B0957B",
"`. c #BAA27D",
"'. c #B49D81",
"]. c #BCA586",
"[. c #B0A186",
"{. c #C4AE8E",
"}. c #C0A587",
"|. c #C5B291",
" X c #CEBF9C",
".X c #D4BD97",
"XX c #DAC39C",
"oX c #D3C39F",
"OX c #DEC7A0",
"+X c #E1CCA4",
"@X c #E6D4AC",
"#X c #EAD9AE",
"$X c #ECDBB1",
/* pixels */
"                                                                                                                                ",
"                                                                l                                                               ",
"                                                              F ! D                                                             ",
"                                                            5 F a.B :                                                           ",
"                                                          r p D ! C e w                                                         ",
"                                                      < / ( p D ! F e ^ / <                                                     ",
"                                                    > ( ..( p S ! F 3 / ` / >                                                   ",
"                                                  r ( `  .` i B a.D u ` @.` / r                                                 ",
"                                              > a o.) ) o.( u F a.B e ( O.o.` ( y                                               ",
"                                            > ( @.@.) ) o.( f F Q x > ( O.o.` s 1.j.6.6.b.r.                                    ",
"                                          ~ ) ] o.O.) ) o.( f F ! N u ( ` o.o./ y.&.7 9 I r.                                    ",
"                                      w ^ ) ) ] o.o.o.o.o.) f S ! S u ( ( ` O._ y.S.0.6.B.b.                                    ",
"                                  < r ( ( ( / ` O.O.O.O. ./ u B Q D u t / ` @.( *.Z.F.F.Z.,.3                                   ",
"                                e ( o.] _ ` o.O.o.o.| O. .( u N Q F 3 / ` | | ] g I 1.:.P p s /                                 ",
"                            > / ] O.O.] ` ] O.] ` ` O.] o.] i c W C e ( ] O.O.` d &.w.w.2.b ` ` / r >                           ",
"                          a ) ] O.O.O.` ( ` o.` ` ` O.O.o.) i B W D 3 ( | @.O.( t J ,.2.6.+.` ` ` ` ( /                         ",
"                      r / ] O.o.o.O.O.] ( ` o.] ( ` ] ]  ...i S ! S u ` O.] | ` / / g &.,.m ` O.` O.| ` / r                     ",
"                  e r ` o.] O.O.| O.O.O.@.o.O.| ` ] ` ] ] ..b S ! C u ` O.| | ] | | ( s g ' ` ` ( ` O.] @.` r e                 ",
"                r ` | ] @.] ] | O.| ] O.O.O.O.] ( ` ( ` ../ i D a.D e / ` O.| O.| | O.` ( ` | ` ( ` o.O.@.| | ` r               ",
"            r ` ] O.O.O.] ` ( ` O.o.` ] O.O.O.O.` ` | O...^ d D Q D 3 ^ ` o.O.| O.| | O.| | ` ` _ ] O.O. .] | | ] ( e           ",
"        r ` ( ] | ] O.O.] ( / ` O.| ( ` O.O.O.O.] ] O.O.@.) p D Q C e ( | ]  .] | ] | | | ] ` ` ` | O.O.O.] ` | ] @./ /         ",
"        a @.( ] O.O.O.O.| | ( ( O.O.( ` ] O.O.O.O.O.@.O.@.) f B Q B 3 ( O.O.| ( ` ] | ` ` ] ] | | ] @.| ] | ) ` @.] ( ( <       ",
"        r ] ( ` O.] O.O.O.] ( ` O.O.( ` o.| O.O.O.O.o.@.o.) i S Q D u ` @.O.] / ` o.O.` ` ] @.| | O.O.` ) | ` | @.] / / >       ",
"        r ] ` ] O.| ] O.O.O.| ] O.| ( ` ] | O.O.o.o.o.@.@.) d D ! D u / ` ] | ( ` o.| ] | ] | | | O.O.` / / / ` @.` ( ( r       ",
"        r @.] ] ` ] @.] ] ] O.O.| O.( ( ` | | | | O.] O.../ u S ! B e s ( ` O.| ] @.| | | ] ] ] ] | | | ` ` ) ` ]  .) ) r       ",
"        w ] ` ( ( o.@.) ( o.O.| O.] ` ` ] O.] | o.| O.O.../ i D Q N e ( ( ] O.O.| ] ] @.o.( ` ` ` ] O.O.| | _ ` ] @.o.) <       ",
"        r ` / ( ` @.@.] ` ] O.O.O.| | O.O.] ` ` @.] | ] ../ p F ! N e ( ` | ] O.] ( ` O.] ] ] ( ` ` O.O.| ( / ` @.O.O.] e       ",
"        r @.`  .| ] O.] ` O.O.O.O.O.O.O.o.` ( ( | O.( ` ( < , S Q C : < / ( ] O.] / ( ] @.@.] ` ` ] O.O.] ` ` o.o.O.O.` r       ",
"        e  . .] ] ]  .| ` ` ` ] O.O.| O.O.| ( ( ] | ( ^ w o # c D c @ o ; r ` @.( ^ ` | O.| ] ( / ] @.| o.O.O.o.o.o.] ) <       ",
"        w .. ...` @.] ] / / ( ` O.] ] ` O.] ` ] ` ( / ; + 2 8 $.,.P 5 : + - / ` ` / ` | O.| ` ( ^ ] O.O.o.( ` o.O.o.@...e       ",
"        e  . . .] @.] ] ( / ( ` O.O.` ` | O.( ) ( w ; 2 J n V K. XF.j J J @ = w r t ` ] ] O.] / ( | O.o.O.( ` o.O.O.@.] r       ",
"        w ( ]  .| ] ` | ` ` | | O.] ( ` ] O.( t e O 9 *.i.I >.{.$X{.Z %.p.&.4 . > r ` ` ( o.O.] O.| O.` ( | ] o.O.O. .( <       ",
"          ( | ] @.] ` | ) ) @.]  .] ] ] ] ) r = + M q.p.Z.d.s.|.$X{.-.f.J.u.1.9 + - ( ( / o. .o.o.@.] ( t | O.] | ] | (         ",
"        e ( ] o.@.] ` ] ] ) @.@.@. .) ) / < = X 9 %.<.k.E.l.8.Z.'.P.Y l.E.9.,.%.5 $ > e / ]  . .] ] ] / / ` O.` ( O.] `         ",
"          / ] O.] ] ] O.@.@. .@.| | / r ; o $ , 6 h k C D C D G Y G G C B B k h 6 # O o < r ( ) ) ] @.` ` ] O._ / ` ) t         ",
"          / O.o.) ) o.o.o.o. .] ] ( e = 1 7 , , % k c j k N -.N.W.N.U B h l k h 6 6 5 2 @ = ~ / ( o.@.] ] | ] ( t ` | /         ",
"          ( @.o.) ` | ]  . .) ( r ; O 4 *.%.6 h h l c 8 c c 7.|.$X{.W v k 8 N 8 k l k %.$.2 = < / ` O.| ` O.] ` ` ] @.`         ",
"        < ( @.@.` ` O.]  .] ~ < = @ q 1.p.1.x B c v C c B c 7.{.$X{.-.c c v D v B c Z j.V.1.9 + > e ( ` ` | o.o.] ] ] /         ",
"          ^ ` | | ] ` ` / r ; . 4 $.i.A.[.Z.S c h h x 8 c c s.{.@X{.-.v h 8 c 6 k k -.'.|.J.t.J 1 . w / ( ` ` O.| | ] (         ",
"          ^ ` ]  .` / r > o @ # M p.L.|.@X_.D B E E E E D c 7.|.@X{.-.B D E Y E Y v -.[.@XoXR.t.b : + O w t ( @.| ] @.]         ",
"          r ( ` / ^ w = + 9 P 0 %.]..X.X+XE.S 3.v.n.x.n.f.U 7.].+X}.;.Y g.M.h.n.h.R R ^.XXOX.XK.A b J 7 + o e ( / ` ` (         ",
"          / ( / < = o o & x Z N R k.x.z.z.5.C V n V A V n B Y s.x.s.G N V A A V A V Y 8.z.z.x.f.G k n x # O o ; < ^ ^ r         ",
"          / e ; O & 9 b n I T E G -.-.-.-.=.G Z P L L L K U E =.-.-.G Z L K L n n Z G T =.>.-.T G G P L L M 9 @ = < w r         ",
"          > = . # z =.5.f.k.f.Y -.l.k.k.k.8.G 7.h.h.h.h.f.;.Y 7.k.s.G 8.h.h.h.f.f.5.Y 5.h.h.x.e.U R 7.f.l.s.>.j @ . - w         ",
"          . $ # 7 z c B F D B c x x x c c x k c c x c c c x x x N N k c c c x c c c c x c c c x k c c S D N N 6 5 # $ o         ",
"          $ 5 j n n n B D B n J n J 2.r.6.%.%.2.0.:.P 2.0.1.%.2.w.0.I P ,.w.6.:.&.,.:.:.,.w.2.2.P M z B D N b M b 6 5           ",
"            k C K T Y H T <.b.D.F.H.!.`./.Y.W.(.(.Q.T.(.`./.Y.I././.I.D.Q./.T.I.I.I.Q.I.I././.I.B.y.6.>.U H G %.K j 8           ",
"            D U L Y D -.m.T.W./.!.!.`.`.`./.`.`.`.`.`.`.`.`./.I.Q.(./.!./.Q.Q././.Q.Q.Q.Q././.!.Q.R.R.R.n.T D G Z Z N           ",
"            G H H G <.N.Q./.I.I.S.n.n.c.b.n.m.n.c.n.v.n.n.v.n.c.D./.`./.Q.I.!.!.!./././.!.!.!.`.(.^.U.Q.G.r.>.D Y H B           ",
"            B H G <.G.!.Q./.^.Q.G.2.q 5 j q j 9 0 0 j 0 9 5 q ,.D.!.`././././.G.r.v.v.v.v.v.c.v.n.j.C.Q.Q.T.G.>.D W c           ",
"            B G -.N.I.Q.(.(./.Q.Q.u.7 5 c x N k c k N k c * 4 r.T.!./.Q././.`.I.2.J 8 * x c * 7 z :.D./.(.(.I.j.-.H k           ",
"            N Y e.R././././.^.I.Q.b.7 5 B c D N B N C c B 5 q S.`./././././.Q.Y.R l & & j z & & h >.T.(./.Q.H.C.e.Y c           ",
"            B Y g.T.(.^.Q./.Q.T.I.r.5 5 B N D c B B C c B 6 0 n././.Q.Q././.Q.Y.2.v E x C C v v k >.I.^.T.T.T.T.f.Y x           ",
"            N Y g.^./.(./.^.Q.I.R.w.1 6 B N C c B c C c B 5 0 m./././.!././.!.Q.2.z * & j j * * h >.D.!.I.T./.Q.f.Y k           ",
"            B Y f.Q.Q.T.Q.(./.I.R.w.4 5 B N C N B v D C D 5 5 r././.Q.Q././.`.!.R l & X j z $ @ 6 4.H.^.(.(./.Q.e.Y k           ",
"            B Y e.I.^.Q.T.^.(.Q.I.6.2 6 B N C N B c D ! Y 5 7 u.!.!.T.T./././.Q.0.R R R ! R R R U 6.I.^.^.^./.T.f.Y c           ",
"            B Y e.I./.(.Q.R./.Q.R.y.2 5 B N D N B N D D C 5 7 b.Y.Y.T.T.`././.U.F.I.U.U.U.U.U.I.I.S.Q./.W.U.T.I.6.H x           ",
"            j H 7.I.R.Q.Q.Q.Q././.n.9 5 B N C c B N C c B 5 9 B./.!././.T.^.`./.G.r.e.0.0.r.r.0.w.n.T.(././.I.C.4.D             ",
"              G 4.S.I.I.I.Q././.Q.n.9 5 B N C c B c C N B 5 9 n.`.!.^./.T.Q.!.!.Q.I.Q.I.I.T.Y.Y.I.Q./.(./.Q.T.Z.;.C             ",
"              F 4.S.I.I.I.I.I.G.R.b.7 5 B B D N B B D N B 5 7 b.!.!././.Q.T./.`./.(.(.(.`.Q.T.T./.(././.Q.U.I.B.3.G             ",
"            6 D -.j.b.D.G.G.S.j.n.w.4 # j h z h j h j h j # 4 0.S.D.I.H.m.D.H.H.D.S.G.H.H.S.D.H.G.D.B.D.G.D.j.6.R C             ",
"              8 6                                                                                               5 6             ",
"                                                                                                                                ",
"                                                                                                                                "
};
