/* XPM */
static char *_3d11fa8a3b34f99c1c54bd0130c032dcveu7mybCVHqwmMK[] = {
/* columns rows colors chars-per-pixel */
"32 32 193 2 ",
"   c None",
".  c #030349",
"X  c #010451",
"o  c #010B55",
"O  c #04045A",
"+  c #030858",
"@  c #00105D",
"#  c #030C64",
"$  c #060E6B",
"%  c #001261",
"&  c #02156C",
"*  c #08156F",
"=  c #01196D",
"-  c #090F71",
";  c #060B79",
":  c #051274",
">  c #091574",
",  c #051A73",
"<  c #0A1A75",
"1  c #001F78",
"2  c #08237C",
"3  c #081086",
"4  c #0A1C8D",
"5  c #051D88",
"6  c #09189B",
"7  c #051E94",
"8  c #101A98",
"9  c #111599",
"0  c #002482",
"q  c #002A8C",
"w  c #0D288D",
"e  c #102780",
"r  c #0A318F",
"t  c #092C96",
"y  c #002D99",
"u  c #0B2A9E",
"i  c #0B249F",
"p  c #00329C",
"a  c #0A319D",
"s  c #0A28A3",
"d  c #0D2EA9",
"f  c #002CAB",
"g  c #003CAD",
"h  c #0933AC",
"j  c #1439A1",
"k  c #1631A8",
"l  c #1939AD",
"z  c #0526B7",
"x  c #062CB5",
"c  c #0D2EB4",
"v  c #132ABE",
"b  c #1524BF",
"n  c #043EB4",
"m  c #0D3EB1",
"M  c #0F3EBA",
"N  c #1A37B2",
"B  c #1D469F",
"V  c #1C45A1",
"C  c #0041B5",
"Z  c #0649BB",
"A  c #0A4ABC",
"S  c #0240BB",
"D  c #1042B4",
"F  c #0A51B7",
"G  c #1551BF",
"H  c #315ABD",
"J  c #3762AE",
"K  c #082FC9",
"L  c #112EC5",
"P  c #0432C5",
"I  c #0D30C7",
"U  c #023ACB",
"Y  c #0B3BCC",
"T  c #0634CA",
"R  c #1134CB",
"E  c #1A36C8",
"W  c #153EC5",
"Q  c #0B3ED3",
"!  c #033CD0",
"~  c #1238D1",
"^  c #0947C0",
"/  c #0643CF",
"(  c #0A46CA",
")  c #084BC7",
"_  c #1847C8",
"`  c #164AC8",
"'  c #0652C5",
"]  c #0B55C3",
"[  c #095ECB",
"{  c #0554C9",
"}  c #1358C1",
"|  c #0641D8",
" . c #0E48D9",
".. c #0A48DA",
"X. c #1D4FD5",
"o. c #104FD9",
"O. c #1643D3",
"+. c #0A54DC",
"@. c #1455D5",
"#. c #1C51D7",
"$. c #1056D8",
"%. c #125BDF",
"&. c #185CDD",
"*. c #135FD1",
"=. c #2144C4",
"-. c #235AC8",
";. c #2B4ED0",
":. c #1D66C6",
">. c #1564CF",
",. c #1B6BCB",
"<. c #1D73CE",
"1. c #1264D7",
"2. c #1C60D0",
"3. c #1B63DC",
"4. c #1F6CDE",
"5. c #1F71D1",
"6. c #1F72DF",
"7. c #1F7ADC",
"8. c #2564CA",
"9. c #2663C9",
"0. c #3A6FCA",
"q. c #2977CE",
"w. c #3A74CA",
"e. c #2D65D7",
"r. c #2165DC",
"t. c #2866D9",
"y. c #226EDF",
"u. c #2D6DDA",
"i. c #2E6AD6",
"p. c #3162D0",
"a. c #346BD6",
"s. c #386FD6",
"d. c #2171D1",
"f. c #297ADF",
"g. c #2D71DA",
"h. c #3777D5",
"j. c #357BD4",
"k. c #3873D8",
"l. c #105FE0",
"z. c #1B67E0",
"x. c #156FE2",
"c. c #1B75E4",
"v. c #2B7BE0",
"b. c #2377E2",
"n. c #327DE3",
"m. c #427FD4",
"M. c #3886CE",
"N. c #3384D2",
"B. c #3E81D0",
"V. c #378AD1",
"C. c #2C84E4",
"Z. c #2D8AE4",
"A. c #3685E2",
"S. c #368CE1",
"D. c #3790E4",
"F. c #3A96E4",
"G. c #4F82C1",
"H. c #538ECD",
"J. c #448ADD",
"K. c #498AD8",
"L. c #4595D4",
"P. c #4892D5",
"I. c #4B9DDF",
"U. c #5697DE",
"Y. c #5599D7",
"T. c #4EA1D6",
"R. c #5AA8D7",
"E. c #54A1D9",
"W. c #5CA0DF",
"Q. c #54A5D6",
"!. c #63A5DF",
"~. c #64ACD9",
"^. c #61B2D9",
"/. c #6BB5DD",
"(. c #6EBADB",
"). c #4090E1",
"_. c #4D98E7",
"`. c #4998E2",
"'. c #4BA3E5",
"]. c #51A3E4",
"[. c #5BA2E4",
"{. c #54ACE5",
"}. c #58A8E3",
"|. c #5DB3E5",
" X c #65A8E2",
".X c #6CB3E5",
"XX c #64B9E7",
"oX c #69B8E5",
"OX c #73BCE7",
"+X c #6FC2E8",
"@X c #7EC9EA",
"#X c #82C6EB",
"$X c #85CBEB",
/* pixels */
"                                                                ",
"                                                                ",
"                                            |.                  ",
"                                          `.].                  ",
"                                          {.|.}.                ",
"                                 X X      XX+XXX                ",
"                                #X#X    ].|.XX{.`.              ",
"                                $X@X  ).].].{.'.V.S.            ",
"                              OX$XoXJ.S.Z.S.`.{.F.v.v.          ",
"                    /.       X.X.XJ.f.b.c.v.D.F.F.v.3.3.        ",
"                  E.E.      !.W.k.y.4.3.y.b.Z.C.Z.Z.c.%.        ",
"                  /./.    H.U.u.3.&. .3.3.x.c.c.x.c.q.$.+.      ",
"                ~.(.(.Y.0.m.t.&.#. .` @.$.1.x.%.+.t > s +. .    ",
"              P.R.^.^.Y.w.9.X.O.~ Y s d i > t ) i - $ d +...    ",
"            B.L.T.Q.T.P.w.:.W b v d V j 4 + . > # $ 9 ~ Q       ",
"          8.N.V.V.L.L.N.j.H g 9 : w H.J 4 & % # +               ",
"        } ,.,.:.q.M.M.d.d.-.w # O 2 H.G.< = 2                   ",
"      D ] [ ] } ,.:.<.1.>.>.M - O   .XOXJ , 2                   ",
"    M A [ ' ^ ] ] Z F ] ) ( ( d     .X.X[.B 0                   ",
"    h ^ { ^ n Z C h ,   P T x 8   [.[. X_.h.j                   ",
"                5 & X       3 ; -.U.J.h.g.n.t.=.                ",
"                  X         ; 4 s.A.p.2 w -.2._ E               ",
"                # #         6 N u.r.l * O * , ,                 ",
"                f 7   U.    L k t a < @ + o o @                 ",
"              x U z   U.    L c   & = = #   & 0                 ",
"              T U   s.K.h.  I Y       p       q                 ",
"              ! K   i.i.a.;.R Q     C g       q q               ",
"                  #.-.`       |     C C                         ",
"                      2             C                           ",
"                      y                                         ",
"                                                                ",
"                                                                "
};
