/* XPM */
static char *e99feff5bd1b4966e6ea8c6886358dcfzMWbREhpGYVtx2MR[] = {
/* columns rows colors chars-per-pixel */
"32 64 145 2 ",
"   c None",
".  c #0E0E0F",
"X  c #100E10",
"o  c #151313",
"O  c #1A1616",
"+  c #141718",
"@  c #111D1D",
"#  c #1E1F1D",
"$  c #221D1B",
"%  c #12211F",
"&  c #1D211D",
"*  c #26211E",
"=  c #28221F",
"-  c #142422",
";  c #162C25",
":  c #1A2D25",
">  c #153425",
",  c #133A25",
"<  c #173128",
"1  c #19342A",
"2  c #143D29",
"3  c #1B3A2D",
"4  c #1D3F30",
"5  c #212320",
"6  c #2C2623",
"7  c #114022",
"8  c #124E23",
"9  c #13442A",
"0  c #1A442E",
"q  c #144C2C",
"w  c #1B4D2A",
"e  c #0E5924",
"r  c #115324",
"t  c #155B25",
"y  c #15522D",
"u  c #135E28",
"i  c #185829",
"p  c #1E4432",
"a  c #1D4D34",
"s  c #155530",
"d  c #1D5035",
"f  c #165E32",
"g  c #1C5B37",
"h  c #1E5B39",
"j  c #234A26",
"k  c #205923",
"l  c #204635",
"z  c #214C36",
"x  c #224E39",
"c  c #23533B",
"v  c #215B3B",
"b  c #136427",
"n  c #1D6327",
"m  c #126C27",
"M  c #14622C",
"N  c #1E6C2E",
"B  c #167329",
"V  c #187629",
"C  c #147C2D",
"Z  c #176531",
"A  c #196233",
"S  c #166A34",
"D  c #1E653B",
"F  c #1C6B3C",
"G  c #1B743D",
"H  c #197B3C",
"J  c #2C6227",
"K  c #256B2C",
"L  c #23762E",
"P  c #217F2A",
"I  c #387E2B",
"U  c #276136",
"Y  c #20613C",
"T  c #2A7C35",
"R  c #23793B",
"E  c #15802A",
"W  c #1E872B",
"Q  c #1D8B2B",
"!  c #15932D",
"~  c #139E2E",
"^  c #1C9B2F",
"/  c #168434",
"(  c #1B8436",
")  c #168C36",
"_  c #1A8E36",
"`  c #178539",
"'  c #18823A",
"]  c #178838",
"[  c #159432",
"{  c #1D9433",
"}  c #159A30",
"|  c #1B9932",
" . c #20802B",
".. c #268C2E",
"X. c #249C2E",
"o. c #36992E",
"O. c #268A36",
"+. c #2E8C33",
"@. c #25853C",
"#. c #268A3B",
"$. c #308837",
"%. c #3B8C30",
"&. c #279D34",
"*. c #349C31",
"=. c #3A9935",
"-. c #15A12D",
";. c #1CA42E",
":. c #1DA030",
">. c #21A62F",
",. c #2AA42F",
"<. c #26A92F",
"1. c #28AA2F",
"2. c #26A332",
"3. c #2BA432",
"4. c #26A830",
"5. c #2BAB30",
"6. c #3EA635",
"7. c #31AD31",
"8. c #3BAC33",
"9. c #35B031",
"0. c #3AB231",
"q. c #4AAF35",
"w. c #43B632",
"e. c #4AB636",
"r. c #45B833",
"t. c #4CBA34",
"y. c #53B334",
"u. c #54BE34",
"i. c #58BF37",
"p. c #61B938",
"a. c #57C034",
"s. c #5AC135",
"d. c #5EC338",
"f. c #64C537",
"g. c #65C538",
"h. c #69C53A",
"j. c #67C839",
"k. c #6DC939",
"l. c #74CB3A",
"z. c #7CCF3C",
"x. c #7CD03C",
"c. c #82D13E",
"v. c #8CD53F",
"b. c #91D640",
"n. c #95D841",
/* pixels */
"                                                                ",
"                                                                ",
"                                                                ",
"                                r 7                             ",
"                                C b                             ",
"                              r 5.Q                             ",
"                              P d.8.r                           ",
"                            K h.c.k. .                          ",
"                          u p.c.v.z.q.n                         ",
"                        9 +.l.v.b.i.k.y.t                       ",
"                        y L d.l.v.w.u.o.C 9                     ",
"                        > o.r.l.c.j.j.%.9 2                     ",
"                        V 7.t.v.c.v.v.h.B                       ",
"                      m e.l.z.n.c.b.l.k.3.m                     ",
"                    b { w.u.z.c.f.l.f.d.6.` u                   ",
"                  > f M ^ u.i.u.s.k.f.g.y.K f ,                 ",
"                    @ m e.v.g.w.d.v.i.z.z.I @                   ",
"                    y ,.h.c.w.i.h.c.e.u.v.q.e                   ",
"                  9 H w.g.i.w.f.l.k.k.w.g.s.X.r                 ",
"                , S S q.f.s.s.d.h.u.s.u.a.t.2.E 9               ",
"                  , V 1.d.x.f.a.u.w.a.g.x.g.O.M y -             ",
"                  8 5.j.f.l.x.t.t.5.t.j.b.z.8.8                 ",
"                , Q w.u.u.z.f.7.u.0.w.s.w.h.s...                ",
"                V ^ w.u.w.d.r.0.s.s.t.s.r.r.s.u.T               ",
"              9 y K 9.1.7.a.r.u.t.r.s.s.s.u.u.o.@.A             ",
"                9 ) -.~ 0.s.u.s.t.0.s.r.0.i.u.,.u >             ",
"              w O.~ ) { t.0.1.i.r.t.s.1.} 4.r.5.! 9             ",
"            9 +.@.) ) 2.7.-.1.r.;.9.t.;.) [ ;.;.-.! k           ",
"          - d U A ~ ~ ;.| } 4.>.-.1.5.-.[ ) :.4.[ ( $.j         ",
"          - - ; C ~ ~ ~ ) } -.~ ~ 1.;.~ ~ ~ -.-.! y w 1         ",
"              i ^ 1.-.[ ] ~ 4.1.-.-.~ ! ~ 4.<.~ ;.m             ",
"            q ) 9.4.~ ) ~ ~ 0.1.~ ;.;.) [ 4.w.;.1.X.i           ",
"          9 ` ] #._ -.} -.:.4.} } 4.4.[ [ ~ :.;.} 3.=.J         ",
"        ; d h A H ) :.4.-.-.-.} [ -.4.-.[ ~ -.~ ] F R R 9       ",
"        - ; < S G | w.2.} } } } } -.-.-.-.:.[ [ } S p p 3       ",
"            s F H | 2.] } [ [ -.-.~ -.} | 0.| H ( ' q %         ",
"          2 G H H G H H } ] ] [ ~ [ [ } H { ) H F H ' y         ",
"          a @.&.H D H ' ` H ' ' } ' ) [ G F H H G H ' ' q       ",
"        a G #.` G H ] H G G H H G H H ' H G G ' [ H G ) ` 9     ",
"      0 G G F F G H H H G G ' ' F H H G H H F G ) ` g D G A 1   ",
"    < x h x p D ' ' H G H H [ ` H ` H Y F H F D G H F 3 1 1 <   ",
"      ; - - 0 H [ G Y F _ ' ` H H [ H D Y H ` F G ' H q         ",
"          > D ` ' H G ' } ' H H H ] ` H Y G ` H G H ` F 3       ",
"        ; g H H G D G _ ' H H H G H ' H H H H H v v F G D <     ",
"        g G F Y v v G H G Y H _ G G G G G H D G Y z x c v z <   ",
"      l v v c c c F G G v c G ' D D H D F G v D D z 3 3 3 1 <   ",
"    < p p 3 3 c v D Y c c c D G v c F v v D v c c c 4 -         ",
"          @ p Y Y c c c F v c D c c v c v c c c c D v 4         ",
"          3 c Y c p c v F c c v c Y c v Y v c v c v v z <       ",
"        1 c c l < 1 c c v c F v c v c x Y v z F D l p p 4       ",
"        1 3 3 - ; p p x x p v p x c p < c x < x Y z ;           ",
"                - - p c < < x : < c p + 3 c < : l c p           ",
"                  - 4 3 + # 1 5 $ : 3 +   < : @   1 1 -         ",
"                  -     X $ $ 5 $ $ $ O                         ",
"                        . $ * * = = 5 O                         ",
"                        o $ o * 6 O $ O                         ",
"                                                                ",
"                                                                ",
"                                                                ",
"                                                                ",
"                                                                ",
"                                                                ",
"                                                                ",
"                                                                "
};
