/* XPM */
static char *add3d566f81d4658f887c009422a5e2dYZbWI6tt5B75sQKd[] = {
/* columns rows colors chars-per-pixel */
"32 32 148 2 ",
"   c None",
".  c #4E4F13",
"X  c #564715",
"o  c #594417",
"O  c #554C15",
"+  c #5A4B16",
"@  c #5D4718",
"#  c #5E4C18",
"$  c #4E5313",
"%  c #525513",
"&  c #5B5515",
"*  c #565A15",
"=  c #5B5C16",
"-  c #5C5218",
";  c #5C5D18",
":  c #624D17",
">  c #614B19",
",  c #605614",
"<  c #615C16",
"1  c #64531A",
"2  c #69561D",
"3  c #675A1A",
"4  c #6B5C1D",
"5  c #705C1D",
"6  c #5D6017",
"7  c #5E6118",
"8  c #636417",
"9  c #636519",
"0  c #6C631B",
"q  c #666919",
"w  c #6B6C1A",
"e  c #72671C",
"r  c #736C1D",
"t  c #786F1D",
"y  c #6E701C",
"u  c #73741E",
"i  c #79741E",
"p  c #77781F",
"a  c #79791F",
"s  c #6E5C20",
"d  c #715E22",
"f  c #746623",
"g  c #736D20",
"h  c #786C26",
"j  c #7B6F29",
"k  c #767421",
"l  c #7B7422",
"z  c #7A7A26",
"x  c #7B7A25",
"c  c #7D7B27",
"v  c #7E7A26",
"b  c #7E7B26",
"n  c #7D7C24",
"m  c #7D7C25",
"M  c #7E7D25",
"N  c #7F7E24",
"B  c #7E7D26",
"V  c #7F7D27",
"C  c #7F7E26",
"Z  c #7C7B22",
"A  c #7C7329",
"S  c #7F7528",
"D  c #7D7B28",
"F  c #7E7A29",
"G  c #7E7D28",
"H  c #7D7B29",
"J  c #807F23",
"K  c #817F25",
"L  c #807C26",
"P  c #807D27",
"I  c #80772C",
"U  c #807B28",
"Y  c #817B2A",
"T  c #817C28",
"R  c #807D28",
"E  c #817F28",
"W  c #817F29",
"Q  c #827F28",
"!  c #837C2A",
"~  c #807E2B",
"^  c #827F2A",
"/  c #827F2B",
"(  c #847C29",
")  c #80782C",
"_  c #827A2D",
"`  c #837D2D",
"'  c #857E2F",
"]  c #857F2F",
"[  c #867E2F",
"{  c #827C2C",
"}  c #818023",
"|  c #818027",
" . c #828026",
".. c #828127",
"X. c #838128",
"o. c #828029",
"O. c #838029",
"+. c #83802A",
"@. c #83802B",
"#. c #848128",
"$. c #84812B",
"%. c #84822A",
"&. c #85822B",
"*. c #87832B",
"=. c #83802C",
"-. c #83812C",
";. c #84802C",
":. c #85802C",
">. c #84812C",
",. c #85812C",
"<. c #84812D",
"1. c #87812D",
"2. c #85822D",
"3. c #86832C",
"4. c #87822D",
"5. c #84812E",
"6. c #85812E",
"7. c #86802F",
"8. c #86822E",
"9. c #86832E",
"0. c #87832E",
"q. c #86822F",
"w. c #86832F",
"e. c #87832F",
"r. c #87842F",
"t. c #86812D",
"y. c #89832F",
"u. c #88842D",
"i. c #88832F",
"p. c #878130",
"a. c #868230",
"s. c #878330",
"d. c #878331",
"f. c #888331",
"g. c #888430",
"h. c #898430",
"j. c #888530",
"k. c #888431",
"l. c #898431",
"z. c #898531",
"x. c #888432",
"c. c #898432",
"v. c #898532",
"b. c #8A8533",
"n. c #8A8632",
"m. c #8B8632",
"M. c #8A8633",
"N. c #898531",
/* pixels */
"                                                                ",
"                                                                ",
"                            d s                                 ",
"                        > s ] ) s                               ",
"                      h ) ) ,.i.h 1 s 2                         ",
"                f f f ] l.,.m @.Y A p.h                         ",
"              5 Y @.Y k.k.m a Z L ,.l.h > 2 2                   ",
"                S @.z z 3.@.m } Z *.z w g ] [ h                 ",
"            2 2 u Z i u L y.i.%.@.,.b w p @.p.~ s               ",
"            r p l l ( ] J ( l.i.Y p.F w w z @.Z k s d           ",
"          2 u p Z ,.l.y.L i ..} u g e g G p.-.Z k m b 4         ",
"          0 y z ,.l.i.y.L i a p r p w l n.-.| Z p m S 3         ",
"      r g u u a.l.,.#.l.y.p u u p a p u -.,.G u y u 0           ",
"    t Z Z u y -.3.Z a *.y.Z u p a Z Z u H k.k.k w w w 3 1       ",
"    l Z u q w u Z Z p Z J a u p Z ..*.Z a ..@.m y q y p 0       ",
"    4 w q k @.m J a u p a u q w u m k.k.| N a u q 7 u p 0       ",
"      w l ,.y.L J Z u y a y q w u a ..k.k.-.y q 7 6 w r 3       ",
"    e u G *.Z t a J p q w q w w a ..,.3.-.@.l y w 6 = 8 w 4     ",
"    e u u Z m l i i u y w q u a Z b l.-.k Z Z k w 9 6 w a a 0   ",
"      f q k l.,.u r y q q k *.y.b r g y w u l w 9 6 q w u Z 4   ",
"    f ~ G G p.,.L y q q w a i.y.k w 9 6 q w 8 * * 6 q w w 0     ",
"  5 b [ Y z Z m Z w 9 q w u p u p p 7 $ 9 q 6 % 7 u y w 3       ",
"  5 Z Z u q 9 y u q 8 < 8 q 8 w p Z u & < = = ; u Z u y w       ",
"    4 w q q 9 8 9 q < < 8 < < 9 r a p 8 = = ; 6 u p 0 w u 1     ",
"      0 w q * * 9 8 = = 8 6 q u w w y y 6 6 6 * & < - & 0 :     ",
"      1 = * % * < = * * * = u p u 9 u y 6 9 q ; * % $ O         ",
"        & $ % , & * * = * * 9 q ; * y w % 6 w q ; * * X         ",
"          # + : = = 9 9 = % % * % $ ; * $ - w 9 ; - - @         ",
"                > < 9 6 % $ % % & * * * X   1 ; -               ",
"                  1 = % X + + + - ; ; - @                       ",
"                    + @           > #                           ",
"                                                                "
};
